<svg width="800" height="800" viewBox="0 0 800 800" fill="none" xmlns="http://www.w3.org/2000/svg">
<path d="M399.999 183.354L381.986 200.691C386.699 205.588 393.203 208.354 399.999 208.354C406.796 208.354 413.299 205.588 418.013 200.691L399.999 183.354ZM233.353 547.363C222.692 538.59 206.937 540.12 198.163 550.78C189.389 561.44 190.919 577.197 201.58 585.97L233.353 547.363ZM78.0657 447.05C84.6907 459.163 99.8817 463.613 111.995 456.987C124.109 450.36 128.558 435.17 121.933 423.057L78.0657 447.05ZM91.666 304.57C91.666 232.874 132.178 172.751 187.478 147.473C241.202 122.916 313.388 129.419 381.986 200.691L418.013 166.018C336.616 81.4507 242.136 67.513 166.691 101.999C92.823 135.764 41.666 214.168 41.666 304.57H91.666ZM283.247 649.997C300.321 663.457 318.651 677.81 337.226 688.663C355.796 699.513 376.986 708.333 399.999 708.333V658.333C389.679 658.333 377.536 654.31 362.453 645.493C347.376 636.683 331.735 624.553 314.201 610.73L283.247 649.997ZM516.753 649.997C564.306 612.507 625.093 569.553 672.776 515.86C721.316 461.203 758.333 393.42 758.333 304.57H708.333C708.333 377.817 678.359 434.273 635.389 482.66C591.563 532.01 536.319 570.903 485.799 610.73L516.753 649.997ZM758.333 304.57C758.333 214.168 707.176 135.764 633.306 101.999C557.863 67.513 463.383 81.4507 381.986 166.018L418.013 200.691C486.609 129.419 558.796 122.916 612.519 147.473C667.819 172.751 708.333 232.874 708.333 304.57H758.333ZM485.799 610.73C468.263 624.553 452.623 636.683 437.546 645.493C422.463 654.31 410.319 658.333 399.999 658.333V708.333C423.013 708.333 444.203 699.513 462.773 688.663C481.349 677.81 499.676 663.457 516.753 649.997L485.799 610.73ZM314.201 610.73C287.671 589.817 260.709 569.877 233.353 547.363L201.58 585.97C229.255 608.747 258.49 630.48 283.247 649.997L314.201 610.73ZM121.933 423.057C103.226 388.853 91.666 350.11 91.666 304.57H41.666C41.666 359.153 55.6643 406.09 78.0657 447.05L121.933 423.057Z" fill="#101920"/>
</svg>
