<svg width="100" height="93" viewBox="0 0 100 93" fill="none" xmlns="http://www.w3.org/2000/svg">
<path d="M48.2775 79.2892C69.0762 79.2892 85.9369 62.4285 85.9369 41.6298C85.9369 20.8311 69.0762 3.97046 48.2775 3.97046C27.4788 3.97046 10.6181 20.8311 10.6181 41.6298C10.6181 62.4285 27.4788 79.2892 48.2775 79.2892Z" fill="#AF282F"/>
<path d="M98.1942 1.77963C97.8309 1.53902 97.3995 1.34999 96.9123 1.21781C95.9207 0.948678 94.8784 0.99635 93.9769 1.35106C93.0037 1.73401 92.3066 2.45496 92.0649 3.32889C91.8956 3.9415 92.0526 4.56144 92.5071 5.0745C92.611 5.19173 92.7267 5.30525 92.8494 5.4255C93.1553 5.7257 93.4717 6.03616 93.6589 6.45711C93.9226 7.05028 93.799 7.81685 93.328 8.50771C93.3149 8.52686 93.2999 8.54395 93.2838 8.55929C93.2857 8.56173 93.2877 8.56378 93.2897 8.56623C93.616 8.99655 93.7533 9.54918 93.6663 10.0825C93.5509 10.7881 93.0696 11.3201 92.2353 11.6639C92.1956 11.6803 92.1544 11.6881 92.1137 11.6881C91.9789 11.6881 91.8515 11.6023 91.8079 11.4626C91.7581 11.3029 91.8492 11.1319 92.0036 11.0676C92.7038 10.776 93.0439 10.3562 93.0522 9.77895C93.0548 9.60418 93.0233 9.42892 92.9575 9.26695C92.7776 8.82403 92.4131 8.54171 91.9927 8.49472C91.3065 8.41803 90.7728 8.93383 90.2082 9.48002C89.9629 9.71701 89.7096 9.96221 89.4428 10.1517C88.7145 10.67 87.8682 10.8564 87.1799 10.6513C86.378 10.412 85.9344 9.82789 85.9636 9.04872C86.0033 7.98302 86.9184 6.85568 87.9219 6.63598C88.3208 6.54884 88.5731 6.42135 88.6323 6.27687C88.7308 6.03655 88.4045 5.53736 88.1168 5.09678C87.8012 4.6136 87.475 4.11412 87.4046 3.60486C87.3521 3.22729 87.3413 2.82911 87.3306 2.44411C87.2901 0.959325 87.2026 0.11392 85.878 0.00538671C85.1941 -0.051371 84.5416 0.350426 83.9086 0.737961C83.603 0.925232 83.287 1.11885 82.9691 1.25992C82.4836 1.47532 82.0671 1.40762 81.6636 1.34217C81.5271 1.3199 81.3857 1.29694 81.242 1.28551C80.8144 1.2521 80.1925 1.23764 79.7262 1.50199C79.311 1.73791 79.0553 2.0681 78.9449 2.51142C78.7184 3.42062 79.1612 4.56808 79.6509 5.33876C80.5119 6.69381 81.8893 7.16809 83.2024 6.61712C83.5677 6.46385 83.8542 6.17049 83.9884 5.7977C84.0516 5.62215 84.0913 5.44191 84.1029 5.26177C84.1274 4.88137 83.8884 4.18152 83.4595 3.71398C83.301 3.54097 83.0539 3.33348 82.7778 3.32732C82.4668 3.31941 82.2313 3.396 82.1305 3.53491C81.9914 3.726 82.0654 4.06596 82.1536 4.32073C82.2032 4.46404 82.1533 4.62748 82.0235 4.70602C81.8424 4.81563 81.6183 4.728 81.5526 4.53965C81.3494 3.9583 81.3698 3.49389 81.6129 3.15901C81.8423 2.84347 82.2602 2.67398 82.792 2.68804C83.189 2.69674 83.5827 2.90218 83.931 3.2817C84.4401 3.83687 84.7807 4.68687 84.7412 5.3028C84.6552 6.64379 83.4131 7.9456 82.0829 8.08852C80.6972 8.23867 79.343 7.46116 78.4455 6.86418C78.3357 6.79111 78.2252 6.71637 78.1136 6.64086C76.9186 5.83297 75.6831 4.99772 74.3084 5.52026L74.2526 5.54166C73.9393 5.6625 73.4658 5.84449 73.0432 5.4848C72.8398 5.31169 72.6398 5.12511 72.4461 4.94477C71.9046 4.44001 71.3448 3.91805 70.6783 3.66387C68.2235 2.728 65.7222 3.00016 63.8157 4.41139C63.2607 4.82237 62.8141 5.35204 62.3412 5.91278C61.6452 6.73826 60.9257 7.59187 59.8328 8.03313C59.2746 8.2585 58.7086 8.30901 58.1613 8.35785C57.6699 8.40172 57.2059 8.44294 56.7618 8.60413C55.646 9.00886 54.8944 9.9502 54.6456 11.2549C54.4051 12.5157 54.6664 13.6693 55.4678 14.8852C55.8528 15.4689 56.3083 16.1389 56.8435 16.7054L56.9525 16.8204C57.809 17.7251 58.6948 18.6608 59.0983 19.891C59.1451 20.0332 59.1905 20.1795 59.2367 20.3276C59.5886 21.4577 59.9523 22.6265 61.1035 22.9121C61.642 23.0459 62.2232 22.9951 62.7201 22.9279C63.0128 22.8882 63.3312 22.8255 63.6683 22.759C64.5623 22.5826 65.5754 22.3825 66.4298 22.5778C66.8051 22.6634 67.293 22.7939 67.7356 23.0444C69.8145 24.2217 73.0986 23.6358 74.6251 21.8156C74.8237 21.5786 74.9792 21.3084 75.1439 21.0222C75.3221 20.7125 75.5064 20.3922 75.7561 20.102C76.1549 19.6377 76.5905 19.5407 77.0115 19.4467C77.1541 19.415 77.3012 19.382 77.4558 19.3345C78.0562 19.149 78.6598 18.8078 79.0704 18.4215C79.543 17.9769 79.7014 17.3364 79.5413 16.5179C79.4574 16.0898 79.294 15.699 79.121 15.2853C78.8526 14.6436 78.5753 13.9802 78.6174 13.1744C78.6253 13.025 78.6351 12.8776 78.6446 12.7321C78.7161 11.6559 78.7723 10.806 78.0344 10.0032C77.416 9.33084 76.4258 9.05565 75.3857 9.26627C75.1411 9.3158 74.9125 9.396 74.6913 9.47367C74.0385 9.70275 73.3634 9.93974 72.5323 9.26647C71.5742 8.49032 70.392 7.69679 68.8889 7.69689C67.8612 7.69689 67.0436 7.84811 66.3897 8.15945C65.6362 8.51767 65.2027 9.09844 64.7007 9.77084C64.6017 9.9034 64.501 10.038 64.3963 10.1733C63.8285 10.9066 62.9941 11.0305 62.2579 11.1399C61.5675 11.2425 60.9712 11.3311 60.5755 11.8332C60.493 11.938 60.4285 12.0765 60.3662 12.2821C60.0256 13.4096 60.2703 14.4754 61.16 15.7379C61.6021 16.3657 61.6936 17.0721 61.7823 17.7552C61.8966 18.6344 61.9951 19.3938 62.8167 19.8768C63.722 20.409 64.8228 20.0786 65.8873 19.7589C66.1115 19.6917 66.3314 19.6258 66.5444 19.5694C67.2375 19.3858 68.0564 19.2575 68.8787 19.6959L69.1031 19.8168C69.6127 20.0927 70.1399 20.3782 70.687 20.4737C71.4805 20.6121 72.2404 20.2988 72.8227 19.5896C73.0522 19.3103 73.2287 19.0011 73.3995 18.7021C73.8598 17.8961 74.3352 17.0624 75.7376 17.1429C76.0694 17.1618 76.3711 17.0495 76.5925 16.8268C76.8323 16.5854 76.9566 16.2359 76.9333 15.8679C76.8906 15.1954 76.5521 14.5121 76.028 14.0399C75.6978 13.7425 75.1967 13.6467 74.6659 13.5453C74.0078 13.4195 73.3272 13.2894 72.9186 12.7375C72.8072 12.5869 72.7218 12.4383 72.6464 12.3072C72.5042 12.0601 72.392 11.865 72.1539 11.7121C71.6459 11.3861 71.0111 11.2727 70.4124 11.4006C70.0031 11.4881 69.7265 11.715 69.406 11.9776C69.1764 12.166 68.9391 12.3606 68.6351 12.517C68.1876 12.7471 67.7761 12.7901 67.378 12.8316C67.185 12.8518 66.9853 12.8725 66.7763 12.9148C66.148 13.0418 65.5671 13.5142 65.6724 14.1714C65.8242 15.1174 67.6121 15.848 68.7877 15.6814C69.6325 15.5619 69.5755 15.0949 69.5566 14.9414C69.5468 14.861 69.4883 14.7755 69.4077 14.7237C69.3768 14.704 69.2977 14.6607 69.2186 14.6852C69.1135 14.7177 68.9979 14.7076 68.9179 14.6323C68.7117 14.4381 68.8029 14.1459 69.0259 14.0753C69.262 14.0004 69.5279 14.0405 69.7536 14.1855C69.9949 14.3408 70.1585 14.5943 70.1916 14.8636C70.2868 15.6424 69.7954 16.1848 68.8772 16.3146C67.5281 16.5058 65.2723 15.7146 65.0408 14.2727C64.8718 13.2172 65.7223 12.4753 66.6497 12.2879C66.8885 12.2397 67.1036 12.2172 67.3118 12.1955C67.6822 12.1568 68.0019 12.1236 68.3424 11.9483C68.5859 11.823 68.7873 11.6579 69.0007 11.4831C69.3532 11.1941 69.7178 10.8952 70.2789 10.7753C71.0403 10.6121 71.8505 10.7576 72.4993 11.174C72.8688 11.4111 73.0376 11.7046 73.2009 11.9884C73.2742 12.1158 73.3433 12.2362 73.4328 12.3571C73.6927 12.7082 74.2238 12.8097 74.7861 12.9171C75.3795 13.0305 75.9932 13.1478 76.4561 13.5647C77.1111 14.1549 77.5177 14.9795 77.5716 15.8275C77.6064 16.3781 77.4148 16.9067 77.0459 17.2778C76.6937 17.632 76.2159 17.8106 75.701 17.7816C74.6916 17.7239 74.4005 18.2395 73.9551 19.0194C73.771 19.3416 73.5809 19.6746 73.3171 19.9957C72.582 20.8905 71.6084 21.2844 70.5772 21.1038C69.9272 20.9904 69.3534 20.6797 68.7986 20.3794L68.5777 20.2605C67.9529 19.9272 67.3098 20.0285 66.708 20.1879C66.5015 20.2426 66.2886 20.3065 66.0714 20.3717C64.9309 20.714 63.639 21.1024 62.4924 20.4284C61.401 19.7868 61.2668 18.7513 61.1481 17.8378C61.0659 17.2038 60.988 16.605 60.637 16.1066C59.6233 14.6678 59.3507 13.4314 59.754 12.0974C59.8119 11.9052 59.9008 11.6563 60.073 11.4375C60.6262 10.736 61.4429 10.6146 62.1637 10.5075C62.8408 10.4069 63.4802 10.3119 63.8908 9.78188C63.993 9.6497 64.0912 9.51811 64.188 9.38838C64.7179 8.67876 65.2184 8.00832 66.1147 7.5822C66.8565 7.22915 67.7639 7.0576 68.8888 7.0576C70.5914 7.05751 71.8895 7.92304 72.9349 8.76981C73.4885 9.21811 73.8616 9.0873 74.4795 8.87033C74.7098 8.78954 74.9709 8.69791 75.2586 8.63969C76.5214 8.38462 77.7343 8.73201 78.5052 9.57077C79.4286 10.5752 79.3576 11.6436 79.2827 12.7747C79.2733 12.9172 79.2637 13.0617 79.256 13.2081C79.2214 13.8682 79.4592 14.4369 79.7109 15.0388C79.8887 15.4638 80.0726 15.9034 80.1687 16.3953C80.3711 17.4291 80.1429 18.2908 79.5085 18.8874C79.0305 19.3375 78.3334 19.733 77.6443 19.9457C77.4654 20.0009 77.2983 20.0382 77.1507 20.0711C76.7596 20.1584 76.5015 20.2159 76.2409 20.5191C76.2203 20.5432 76.202 20.5691 76.1822 20.5938C77.2247 20.334 78.0212 20.9152 78.7362 21.4416C79.3218 21.8728 79.8752 22.28 80.549 22.2853C81.211 22.295 81.7913 21.9972 82.214 21.4375C82.3543 21.2517 82.4487 21.1111 82.5161 20.9428L82.5583 20.8409C82.6148 20.7064 82.668 20.5794 82.6728 20.467C82.6757 20.4036 82.6726 20.3383 82.67 20.2725C82.664 20.119 82.6571 19.9452 82.7025 19.7682C82.8692 19.1186 83.5857 18.9623 84.1086 18.8481C84.256 18.8159 84.3953 18.7855 84.4965 18.7503C84.9777 18.583 85.5526 18.1354 85.7199 17.6037C85.8117 17.3121 85.7661 17.0456 85.5804 16.7889C85.3527 16.4743 85.0287 16.3876 84.6186 16.2779C84.4551 16.2342 84.2863 16.189 84.115 16.1256C83.353 15.8433 82.7111 15.2645 82.3978 14.5773C81.98 13.6608 82.2323 12.7648 83.0409 12.2945C83.8545 11.8211 85.1179 11.916 85.8239 12.8932C86.0539 13.2117 86.163 13.5475 86.1393 13.8647C86.1161 14.1735 85.9457 14.7125 85.0632 14.8519C84.8864 14.8797 84.7247 14.7603 84.6973 14.5859C84.6697 14.4114 84.7887 14.2477 84.9631 14.2202C85.4774 14.139 85.4948 13.905 85.5013 13.8169C85.5169 13.6088 85.4034 13.4033 85.3054 13.2677C84.8116 12.5844 83.9299 12.517 83.3626 12.8473C82.8425 13.1496 82.6995 13.6973 82.9799 14.3118C83.2203 14.8397 83.7404 15.3047 84.3371 15.5256C84.4803 15.5788 84.6277 15.6182 84.7839 15.66C85.1551 15.7593 85.5662 15.8728 85.9021 16.193C85.9294 16.2051 85.9558 16.2196 85.9798 16.2399C86.6532 16.8099 87.992 17.6896 89.3876 17.1788C90.2512 16.863 90.5774 16.1051 90.9551 15.2276C91.284 14.4638 91.624 13.6738 92.3667 13.1432C92.8006 12.8331 93.2794 12.7387 93.7427 12.6473C93.9801 12.6005 94.2041 12.5564 94.417 12.4849C95.8159 12.0149 96.7695 10.7104 96.9056 9.08076C96.97 8.31038 96.8469 7.52016 96.5496 6.7955C96.3957 6.42067 96.1544 6.09614 95.8988 5.75267C95.528 5.25464 95.1449 4.73982 95.0119 4.03684C94.8324 3.08974 95.3781 2.2544 96.3389 2.00549C97.1236 1.8019 97.8481 2.06849 98.5478 2.32649C98.972 2.48289 99.3725 2.6305 99.7695 2.66938C99.8472 2.677 99.9242 2.6814 100 2.68267C99.3538 2.54903 98.8129 2.19022 98.2861 1.84058L98.1942 1.77963Z" fill="#513333"/>
<path d="M5.9517 61.4545C5.97085 61.832 6.02975 62.2044 6.1208 62.5844C6.22122 63.0038 6.32517 63.4374 6.32517 63.9096C6.32517 64.3403 6.42539 64.8134 6.26167 65.2739L6.22328 65.3857C6.19211 65.478 6.15763 65.5758 6.1167 65.6732C7.19529 65.3674 8.32732 65.2463 9.46442 65.3431C9.83848 65.375 10.2058 65.4663 10.5608 65.5545C10.9729 65.657 11.3655 65.7587 11.7243 65.7514C12.1341 65.749 12.5496 65.6061 12.9895 65.4548C13.295 65.3497 13.6112 65.2411 13.9368 65.178C16.7769 64.6283 20.0015 65.4442 22.3523 67.3076C22.7622 67.6326 23.2007 68.0593 23.5956 68.5522C23.454 68.2315 23.3409 67.8995 23.2625 67.559C22.9871 66.362 23.3529 65.0676 24.2175 64.181C25.0853 63.2914 26.3278 62.9337 27.6299 63.1989C28.1205 63.2985 28.5036 62.9941 29.0862 62.4874C29.5109 62.1182 29.9921 61.6998 30.6009 61.5319C32.272 61.0714 34.1054 61.4281 35.2707 62.4407C35.8224 62.9202 36.5097 63.7036 36.6497 64.7122C36.7815 65.6594 36.3213 66.5743 35.4187 67.1596C34.3216 67.8713 32.8857 67.9125 31.8463 67.2634C31.412 66.9921 30.969 66.4617 30.959 65.8885C30.9525 65.5186 31.1299 65.1928 31.4587 64.9715C31.6391 64.8498 31.8852 64.8969 32.0075 65.0783C32.1295 65.2595 32.0816 65.5052 31.9004 65.6272C31.7655 65.7183 31.7485 65.8035 31.7498 65.8748C31.7536 66.0993 31.9801 66.4146 32.2651 66.5926C33.1712 67.1586 34.2856 66.9521 34.9886 66.4962C35.636 66.0762 35.9562 65.4657 35.8666 64.8212C35.76 64.0551 35.2017 63.4286 34.752 63.0378C33.7809 62.1942 32.2344 61.9021 30.8109 62.2945C30.3754 62.4145 30.0013 62.7399 29.6051 63.0842C29.0267 63.5872 28.3708 64.1572 27.4719 63.9739C26.4241 63.7599 25.4696 64.03 24.7836 64.7332C24.1051 65.4292 23.8173 66.4441 24.0333 67.3817C24.373 68.8571 25.4409 70.1633 26.8901 70.8758C27.6472 71.2482 28.5137 71.4632 29.3954 71.4972C29.7457 71.5104 30.0804 71.4927 30.4029 71.4753C30.9296 71.4465 31.4748 71.4169 32.0815 71.5275L32.1409 71.5384C33.299 71.749 34.2997 71.9306 35.4509 71.6908C37.3681 71.2902 39.1108 69.9484 39.9992 68.1887C40.7184 66.7638 40.7887 65.2683 40.1971 63.9777C39.9789 63.5018 39.5222 63.052 39.0804 62.6169C38.3833 61.9301 37.6623 61.2199 37.6618 60.2563C37.6607 58.0719 36.0521 55.9333 33.464 54.6752C31.8003 53.8662 29.5747 53.7 27.6567 54.2413C26.4841 54.5718 25.5103 55.222 24.5919 56.2876C24.3769 56.5372 24.1743 56.8261 23.9601 57.1321C23.3938 57.9403 22.7521 58.8561 21.6814 59.2343C20.8054 59.5436 19.9513 59.4467 19.1254 59.353C18.6793 59.3024 18.2577 59.2549 17.8335 59.2669C16.5323 59.3042 15.0565 60.1443 14.4008 61.2211C14.1313 61.6636 13.886 62.3488 14.2474 63.1009C14.3422 63.2978 14.2592 63.5341 14.0623 63.6286C13.8658 63.7233 13.6293 63.6405 13.5349 63.4435C13.1328 62.6072 13.2005 61.6718 13.7254 60.8097C14.5213 59.5028 16.2393 58.5215 17.8109 58.4764C18.2943 58.4626 18.7608 58.5157 19.2146 58.5672C19.9856 58.6548 20.7139 58.7374 21.4181 58.4886C22.2499 58.1947 22.7902 57.4238 23.3125 56.6782C23.3879 56.5705 23.4682 56.4592 23.5492 56.3619C23.5355 56.3382 23.5119 56.3293 23.4832 56.3288C23.1223 56.323 22.7584 56.3632 22.4022 56.3051C21.8563 56.2161 21.2846 55.9884 20.7646 55.8014C19.6557 55.4021 18.6357 55.2968 17.4738 55.5332C16.9008 55.6498 16.342 55.8369 15.8144 56.0895C15.5369 56.2225 15.268 56.3734 15.0103 56.5418C14.7436 56.7161 14.6129 56.8584 14.4317 57.1028C14.0969 57.5572 13.5243 57.5475 13.1076 57.5394C13.0388 57.5383 12.9711 57.5367 12.9064 57.5379C12.6774 57.5406 12.4903 57.4412 12.2686 57.3869C12.0226 57.3266 11.7702 57.2963 11.5181 57.2773C11.0744 57.2439 10.6282 57.2449 10.185 57.2835C9.4656 57.3461 8.75012 57.5101 8.09843 57.821C7.42818 58.1407 6.7636 58.6395 6.39355 59.2958C6.15323 59.7216 6.01744 60.1949 5.97006 60.6746C5.94417 60.9397 5.93871 61.1983 5.9517 61.4545Z" fill="#513333"/>
<path d="M54.2626 90.7346C54.5648 90.5577 54.8632 90.3833 55.1576 90.2173C56.2053 89.6266 57.331 89.0146 58.5568 88.5964C59.2269 88.3679 60.2458 88.0749 61.1925 88.02C60.1325 87.8465 58.8961 88.0158 58.2051 88.1439C57.5858 88.259 56.97 88.4219 56.318 88.5946C55.0237 88.9374 53.6874 89.2917 52.3186 89.2408C50.0922 89.1582 48.5408 87.9883 48.2699 86.1871C48.2641 86.1489 48.2659 86.1116 48.271 86.0751C48.0008 86.1159 47.7203 86.1363 47.4392 86.1364C46.71 86.1364 45.9842 86.0139 45.4702 85.8451C44.9973 85.6898 44.0802 85.2203 43.9926 84.5548C43.9664 84.3558 43.9965 83.9735 44.4923 83.6492C44.9766 83.3326 45.6381 83.4945 45.9892 83.6192C46.1952 83.6923 46.3025 83.9185 46.2294 84.1242C46.1566 84.33 45.9294 84.4375 45.7246 84.3645C45.3779 84.2412 45.064 84.2201 44.9253 84.3111C44.8133 84.3843 44.7793 84.4384 44.7762 84.4516C44.7778 84.5769 45.218 84.9299 45.7169 85.0938C46.6925 85.4143 48.4725 85.5015 49.157 84.9169C49.3974 84.7115 49.4811 84.4406 49.4204 84.064C49.381 83.8211 49.2288 83.5807 49.0131 83.4212C48.9887 83.4055 48.8927 83.3642 48.8288 83.3369C48.5068 83.1987 48.0652 83.0093 48.0936 82.5789C48.1049 82.422 48.1368 82.2772 48.1677 82.1371C48.2463 81.7807 48.263 81.6317 48.125 81.4808C47.7585 81.0791 47.3785 81.0909 46.9754 81.102L46.8935 81.1043C46.5885 81.1116 46.2847 81.208 45.9632 81.3097C45.6657 81.4039 45.3581 81.5014 45.021 81.5384C44.3848 81.6087 43.8318 81.5172 43.3728 81.2701C43.0159 82.4331 41.8228 83.2546 40.3726 83.2546C40.1543 83.2546 39.9772 83.0775 39.9772 82.8592C39.9772 82.6408 40.1543 82.4639 40.3726 82.4639C41.6267 82.4639 42.6227 81.6849 42.6891 80.652C42.7532 79.6581 41.8203 78.6726 40.6931 78.543C39.7406 78.4332 38.7369 78.8948 37.7665 79.341C37.3466 79.534 36.95 79.7163 36.5541 79.8562C35.3552 80.2803 33.3389 80.246 32.0397 79.455C31.3743 79.05 30.9735 78.4808 30.8805 77.809C30.8086 77.2885 30.8961 76.851 31.1031 76.4784C29.7443 77.0118 28.6699 77.7364 28.4487 78.8179C28.1568 80.2426 28.7846 81.177 30.4838 81.8481C31.1274 82.1021 31.7778 82.1978 32.3643 82.1229C32.581 82.0967 32.7787 82.249 32.8062 82.4655C32.8335 82.6821 32.6803 82.8799 32.4636 82.9075C32.3014 82.928 32.1362 82.9381 31.9681 82.9381C31.392 82.9381 30.7873 82.8181 30.1935 82.5835C28.1246 81.7666 27.3003 80.483 27.6739 78.6593C28.0992 76.5803 30.5778 75.6624 33.238 74.9979C34.3496 74.6112 35.7079 74.382 36.9943 74.1657C38.5795 73.8993 40.0769 73.6475 40.734 73.1709C41.6144 72.5328 41.7866 71.6855 41.2063 70.8463C41.0838 70.6688 41.126 70.4256 41.3013 70.3C42.2692 69.6065 42.7957 68.5373 42.7454 67.3665C42.6979 66.2502 42.1382 65.2179 41.2267 64.5278C41.5546 65.8156 41.3785 67.2119 40.7051 68.5456C39.7109 70.5148 37.7598 72.0169 35.6125 72.4653C35.1659 72.5585 34.7407 72.5958 34.3265 72.5958C33.5328 72.5958 32.7804 72.4589 31.9994 72.3169L31.9399 72.306C31.4248 72.2124 30.9493 72.238 30.4458 72.2654C30.105 72.2838 29.7528 72.3028 29.3646 72.2879C28.3733 72.2495 27.3966 72.0068 26.541 71.586C25.7363 71.1904 25.0352 70.632 24.4801 69.9685C24.7063 70.4683 24.8544 70.9954 24.8783 71.5285C24.9187 72.4231 24.5884 73.23 23.9238 73.862C23.9109 73.8745 22.8074 74.8474 21.9623 75.1813C22.7397 76.8241 22.6109 78.2804 21.5748 79.6181C19.6985 82.0412 15.9203 82.1324 13.4965 80.8271C12.9829 80.5504 12.0567 79.945 11.623 78.9975C11.4636 78.6493 11.4173 78.3904 11.3835 78.2014C11.3717 78.1357 11.3558 78.0457 11.3431 78.0233C11.3346 78.0163 11.2527 77.9545 10.8146 77.8725C10.5214 77.8175 10.2393 77.7761 9.96694 77.7361C8.82329 77.5677 7.74284 77.4087 6.77161 76.372C5.31437 74.8164 5.10326 72.647 6.24672 70.9741C7.51249 69.1222 9.75661 68.3202 12.0986 68.8786C12.2709 68.9197 12.4235 68.9627 12.5669 69.003C12.994 69.1234 13.2756 69.2028 13.7574 69.1436C13.9369 69.1216 14.1142 69.0694 14.3021 69.0143C14.6782 68.9038 15.1038 68.7788 15.6082 68.894C16.5033 69.0989 17.3728 69.6552 18.1924 70.5474C18.5289 70.9134 18.9428 71.4123 19.1585 72.0247C19.3924 72.6892 19.3093 73.396 18.9239 74.0147C18.4384 74.7948 17.5163 75.3531 16.5175 75.4718C15.451 75.598 14.5212 75.0124 14.1096 74.4137C13.8117 73.9805 13.752 73.5208 13.9456 73.1524C14.1052 72.8488 14.5016 72.4872 15.4835 72.4872C15.7018 72.4872 15.8789 72.6642 15.8789 72.8826C15.8789 73.1011 15.7018 73.278 15.4835 73.278C14.9597 73.278 14.7073 73.4032 14.6456 73.5205C14.5946 73.6173 14.6389 73.7878 14.7612 73.9655C15.0516 74.3876 15.7162 74.7715 16.4243 74.6865C17.1901 74.5954 17.8908 74.1779 18.2528 73.5969C18.4335 73.3062 18.6083 72.8432 18.4124 72.2875C18.2814 71.9154 18.034 71.5438 17.61 71.0825C16.9006 70.3104 16.1677 69.8334 15.4315 69.665C15.1291 69.5957 14.8487 69.678 14.5246 69.7732C14.3145 69.8348 14.0973 69.8986 13.8534 69.9285C13.2153 70.0069 12.8147 69.8944 12.3521 69.7643C12.2183 69.7266 12.0757 69.6863 11.9148 69.6479C9.89787 69.1659 7.97505 69.8458 6.89919 71.4202C5.96987 72.7801 6.1504 74.5527 7.34837 75.8315C8.13067 76.6668 8.99171 76.7934 10.0816 76.9537C10.3638 76.9953 10.6559 77.0383 10.96 77.0951C11.8638 77.2643 12.0604 77.4956 12.1616 78.0625C12.1909 78.226 12.224 78.4115 12.3416 78.6685C12.5881 79.2072 13.1455 79.7402 13.8709 80.1308C16.0199 81.2884 19.3774 81.1633 20.9495 79.134C21.8955 77.9124 21.9055 76.6038 20.9809 75.0161C20.9806 75.0157 20.9806 75.0154 20.9804 75.015C20.8705 74.8263 20.9343 74.5843 21.123 74.4743C21.2615 74.3932 21.4296 74.4065 21.5526 74.4946C21.9393 74.4058 23.0521 73.5996 23.3788 73.2891C23.8794 72.8129 24.1181 72.2325 24.088 71.5641C24.028 70.2245 22.926 68.7725 21.8608 67.9278C19.6855 66.2038 16.7062 65.4475 14.0867 65.955C13.8154 66.0075 13.5389 66.1026 13.2462 66.2033C12.7654 66.3687 12.268 66.5397 11.7285 66.5429C11.2749 66.54 10.8111 66.4322 10.3698 66.3227C10.0295 66.2381 9.70826 66.1582 9.39682 66.1317C8.13213 66.0237 6.87399 66.2079 5.70288 66.6369C5.63313 66.7011 5.54492 66.7415 5.44821 66.7415C5.44274 66.7415 5.43707 66.7393 5.4316 66.739C3.88439 67.3641 2.50609 68.4266 1.49764 69.8364C-0.073117 72.0322 -0.433006 74.6587 0.535197 76.8621C1.38471 78.7951 3.18972 79.4974 5.6388 79.9573C6.74054 80.1645 6.74728 81.0585 6.75158 81.65C6.75314 81.8287 6.75442 81.9974 6.77659 82.1469C6.92664 83.1541 7.23788 83.8825 7.75632 84.4389C9.65971 86.4827 14.0909 86.4089 16.6291 85.7039C16.8706 85.6369 17.113 85.5655 17.3561 85.494C19.2883 84.9253 21.4789 84.2803 23.356 85.9244C23.5202 86.0683 23.5367 86.3181 23.3928 86.4824C23.2494 86.6463 22.9992 86.6632 22.835 86.5193C21.5603 85.4027 20.116 85.5636 18.5827 85.9679C19.5786 86.3736 20.3906 87.2367 20.8413 88.2271C21.8596 90.4654 23.1948 91.2191 25.1734 90.6719C26.5895 90.28 27.8106 89.3578 28.992 88.466C30.796 87.1037 32.6623 85.6943 35.315 85.9994C36.8034 86.1701 38.0271 87.0335 38.4331 88.1992C38.7804 89.1964 39.1879 89.7878 40.2418 89.86C41.1574 89.9235 42.1261 89.5788 43.1524 89.2147C44.8535 88.6111 46.7805 87.927 48.4522 89.4477C48.6136 89.5945 48.6255 89.8446 48.4785 90.0062C48.3314 90.1681 48.0818 90.1797 47.9199 90.0326C46.5991 88.8307 45.1243 89.3541 43.4169 89.96C43.2913 90.0044 43.1653 90.0492 43.0388 90.0931C43.7484 90.3596 44.3105 90.7869 44.8916 91.23C45.3156 91.5535 45.7542 91.888 46.2762 92.1751C47.0992 92.6275 48.0069 92.8488 48.9081 92.8134C50.8376 92.738 52.5788 91.7196 54.2626 90.7346Z" fill="#513333"/>
</svg>
